<mxfile host="app.diagrams.net" agent="Mozilla/5.0 (Windows NT 10.0; Win64; x64) AppleWebKit/537.36 (KHTML, like Gecko) Chrome/140.0.0.0 Safari/537.36" version="28.2.3">
  <diagram name="Страница — 1" id="WXQ8_n5y1RpJ7bMaxfv-">
    <mxGraphModel dx="2605" dy="1405" grid="1" gridSize="10" guides="1" tooltips="1" connect="1" arrows="1" fold="1" page="1" pageScale="1" pageWidth="827" pageHeight="1169" background="none" math="0" shadow="0">
      <root>
        <mxCell id="0" />
        <mxCell id="1" parent="0" />
        <mxCell id="YKc5f36czooEZ8qVRQ3M-1" value="&lt;font style=&quot;font-size: 30px;&quot;&gt;Начало&lt;/font&gt;" style="ellipse;whiteSpace=wrap;html=1;fillColor=#d80073;fontColor=#ffffff;strokeColor=#A50040;fontFamily=Times New Roman;" vertex="1" parent="1">
          <mxGeometry x="298" y="40" width="230" height="120" as="geometry" />
        </mxCell>
        <mxCell id="YKc5f36czooEZ8qVRQ3M-2" value="&lt;font style=&quot;font-size: 18px;&quot;&gt;arr, A, B, C, D&lt;/font&gt;" style="shape=parallelogram;perimeter=parallelogramPerimeter;whiteSpace=wrap;html=1;fixedSize=1;" vertex="1" parent="1">
          <mxGeometry x="303" y="230" width="220" height="80" as="geometry" />
        </mxCell>
        <mxCell id="YKc5f36czooEZ8qVRQ3M-4" value="" style="endArrow=none;html=1;rounded=0;entryX=0.5;entryY=1;entryDx=0;entryDy=0;" edge="1" parent="1" target="YKc5f36czooEZ8qVRQ3M-1">
          <mxGeometry width="50" height="50" relative="1" as="geometry">
            <mxPoint x="413" y="230" as="sourcePoint" />
            <mxPoint x="460" y="440" as="targetPoint" />
          </mxGeometry>
        </mxCell>
        <mxCell id="YKc5f36czooEZ8qVRQ3M-5" value="" style="endArrow=none;html=1;rounded=0;entryX=0.5;entryY=1;entryDx=0;entryDy=0;" edge="1" parent="1" target="YKc5f36czooEZ8qVRQ3M-2">
          <mxGeometry width="50" height="50" relative="1" as="geometry">
            <mxPoint x="413" y="390" as="sourcePoint" />
            <mxPoint x="460" y="440" as="targetPoint" />
          </mxGeometry>
        </mxCell>
        <mxCell id="YKc5f36czooEZ8qVRQ3M-7" value="&lt;font style=&quot;font-size: 18px;&quot;&gt;x = A + B + C&lt;/font&gt;" style="rounded=0;whiteSpace=wrap;html=1;" vertex="1" parent="1">
          <mxGeometry x="310" y="390" width="210" height="90" as="geometry" />
        </mxCell>
        <mxCell id="YKc5f36czooEZ8qVRQ3M-8" value="&lt;font style=&quot;font-size: 19px;&quot;&gt;D &amp;gt;= x ?&lt;/font&gt;" style="rhombus;whiteSpace=wrap;html=1;" vertex="1" parent="1">
          <mxGeometry x="290" y="540" width="250" height="160" as="geometry" />
        </mxCell>
        <mxCell id="YKc5f36czooEZ8qVRQ3M-9" value="" style="endArrow=none;html=1;rounded=0;entryX=0;entryY=0.5;entryDx=0;entryDy=0;" edge="1" parent="1" target="YKc5f36czooEZ8qVRQ3M-8">
          <mxGeometry width="50" height="50" relative="1" as="geometry">
            <mxPoint x="160" y="620" as="sourcePoint" />
            <mxPoint x="350" y="790" as="targetPoint" />
          </mxGeometry>
        </mxCell>
        <mxCell id="YKc5f36czooEZ8qVRQ3M-10" value="" style="endArrow=none;html=1;rounded=0;entryX=1;entryY=0.5;entryDx=0;entryDy=0;" edge="1" parent="1" target="YKc5f36czooEZ8qVRQ3M-8">
          <mxGeometry width="50" height="50" relative="1" as="geometry">
            <mxPoint x="680" y="620" as="sourcePoint" />
            <mxPoint x="350" y="790" as="targetPoint" />
          </mxGeometry>
        </mxCell>
        <mxCell id="YKc5f36czooEZ8qVRQ3M-13" value="" style="endArrow=classic;html=1;rounded=0;" edge="1" parent="1">
          <mxGeometry width="50" height="50" relative="1" as="geometry">
            <mxPoint x="160" y="620" as="sourcePoint" />
            <mxPoint x="160" y="760" as="targetPoint" />
          </mxGeometry>
        </mxCell>
        <mxCell id="YKc5f36czooEZ8qVRQ3M-14" value="" style="endArrow=classic;html=1;rounded=0;" edge="1" parent="1">
          <mxGeometry width="50" height="50" relative="1" as="geometry">
            <mxPoint x="680" y="620" as="sourcePoint" />
            <mxPoint x="680" y="760" as="targetPoint" />
          </mxGeometry>
        </mxCell>
        <mxCell id="YKc5f36czooEZ8qVRQ3M-15" value="" style="endArrow=none;html=1;rounded=0;entryX=0.5;entryY=1;entryDx=0;entryDy=0;" edge="1" parent="1" source="YKc5f36czooEZ8qVRQ3M-8" target="YKc5f36czooEZ8qVRQ3M-7">
          <mxGeometry width="50" height="50" relative="1" as="geometry">
            <mxPoint x="300" y="840" as="sourcePoint" />
            <mxPoint x="350" y="790" as="targetPoint" />
          </mxGeometry>
        </mxCell>
        <mxCell id="YKc5f36czooEZ8qVRQ3M-16" value="&lt;font style=&quot;font-size: 20px;&quot;&gt;Да&lt;/font&gt;" style="text;html=1;align=center;verticalAlign=middle;resizable=0;points=[];autosize=1;strokeColor=none;fillColor=none;" vertex="1" parent="1">
          <mxGeometry x="195" y="583" width="50" height="40" as="geometry" />
        </mxCell>
        <mxCell id="YKc5f36czooEZ8qVRQ3M-17" value="&lt;span style=&quot;font-size: 20px;&quot;&gt;Нет&lt;/span&gt;" style="text;html=1;align=center;verticalAlign=middle;resizable=0;points=[];autosize=1;strokeColor=none;fillColor=none;" vertex="1" parent="1">
          <mxGeometry x="570" y="583" width="60" height="40" as="geometry" />
        </mxCell>
        <mxCell id="YKc5f36czooEZ8qVRQ3M-18" value="&lt;font style=&quot;font-size: 18px;&quot;&gt;D - x &amp;gt; 0&lt;/font&gt;" style="rounded=0;whiteSpace=wrap;html=1;" vertex="1" parent="1">
          <mxGeometry x="75" y="760" width="175" height="90" as="geometry" />
        </mxCell>
        <mxCell id="YKc5f36czooEZ8qVRQ3M-19" value="&lt;font style=&quot;font-size: 18px;&quot;&gt;D - x &amp;lt; 0&lt;/font&gt;" style="rounded=0;whiteSpace=wrap;html=1;" vertex="1" parent="1">
          <mxGeometry x="590" y="760" width="180" height="90" as="geometry" />
        </mxCell>
        <mxCell id="YKc5f36czooEZ8qVRQ3M-20" value="" style="endArrow=none;html=1;rounded=0;exitX=0.5;exitY=1;exitDx=0;exitDy=0;" edge="1" parent="1" source="YKc5f36czooEZ8qVRQ3M-18">
          <mxGeometry width="50" height="50" relative="1" as="geometry">
            <mxPoint x="300" y="790" as="sourcePoint" />
            <mxPoint x="360" y="960" as="targetPoint" />
            <Array as="points">
              <mxPoint x="163" y="960" />
              <mxPoint x="320" y="960" />
            </Array>
          </mxGeometry>
        </mxCell>
        <mxCell id="YKc5f36czooEZ8qVRQ3M-21" value="" style="endArrow=none;html=1;rounded=0;" edge="1" parent="1" target="YKc5f36czooEZ8qVRQ3M-19">
          <mxGeometry width="50" height="50" relative="1" as="geometry">
            <mxPoint x="520" y="960" as="sourcePoint" />
            <mxPoint x="350" y="740" as="targetPoint" />
            <Array as="points">
              <mxPoint x="680" y="960" />
            </Array>
          </mxGeometry>
        </mxCell>
        <mxCell id="YKc5f36czooEZ8qVRQ3M-22" value="&lt;font style=&quot;font-size: 20px;&quot;&gt;Конец&lt;/font&gt;" style="ellipse;whiteSpace=wrap;html=1;" vertex="1" parent="1">
          <mxGeometry x="340" y="920" width="180" height="100" as="geometry" />
        </mxCell>
      </root>
    </mxGraphModel>
  </diagram>
</mxfile>
